<?xml version="1.0" encoding="UTF-8"?>
<svg id="Layer_1" data-name="Layer 1" xmlns="http://www.w3.org/2000/svg" viewBox="0 0 512 512">
  <defs>
    <style>
      .cls-1 {
        isolation: isolate;
        opacity: .4;
      }

      .cls-1, .cls-2, .cls-3 {
        stroke-width: 0px;
      }

      .cls-1, .cls-3 {
        fill: #fff;
      }

      .cls-2 {
        fill: #ef4444;
      }
    </style>
  </defs>
  <rect class="cls-2" width="512" height="512" rx="89.17" ry="89.17"/>
  <g>
    <path class="cls-3" d="m81.94,131.67c0-41.18,33.41-74.6,74.6-74.6h198.93c41.18,0,74.6,33.41,74.6,74.6v198.93c0,41.18-33.41,74.6-74.6,74.6h-198.93c-41.18,0-74.6-33.41-74.6-74.6v-198.93Zm49.73,24.87v74.6c0,13.75,11.11,24.87,24.87,24.87h62.17c13.75,0,24.87-11.11,24.87-24.87v-74.6c0-13.75-11.11-24.87-24.87-24.87h-62.17c-13.75,0-24.87,11.11-24.87,24.87Zm161.63-24.87c-13.75,0-24.87,11.11-24.87,24.87v74.6c0,13.75,11.11,24.87,24.87,24.87h62.17c13.75,0,24.87-11.11,24.87-24.87v-74.6c0-13.75-11.11-24.87-24.87-24.87h-62.17Zm-111.9,198.93c0-13.73-11.13-24.87-24.87-24.87s-24.87,11.13-24.87,24.87,11.13,24.87,24.87,24.87,24.87-11.13,24.87-24.87Zm174.06,24.87c13.73,0,24.87-11.13,24.87-24.87s-11.13-24.87-24.87-24.87-24.87,11.13-24.87,24.87,11.13,24.87,24.87,24.87Z"/>
    <path class="cls-1" d="m131.67,156.54v74.6c0,13.75,11.11,24.87,24.87,24.87h62.17c13.75,0,24.87-11.11,24.87-24.87v-74.6c0-13.75-11.11-24.87-24.87-24.87h-62.17c-13.75,0-24.87,11.11-24.87,24.87Zm13.29,247.81l-35.74,35.74c-5.44,5.44-1.55,14.84,6.14,14.84h30.85c6.61,0,12.9-2.64,17.56-7.3l42.51-42.43h-49.73c-3.96,0-7.77-.31-11.58-.85Zm160.77.85l42.43,42.43c4.66,4.66,10.96,7.3,17.56,7.3h30.93c7.77,0,11.66-9.4,6.14-14.84l-35.74-35.74c-3.73.62-7.62.85-11.58.85h-49.73Zm-12.43-273.53c-13.75,0-24.87,11.11-24.87,24.87v74.6c0,13.75,11.11,24.87,24.87,24.87h62.17c13.75,0,24.87-11.11,24.87-24.87v-74.6c0-13.75-11.11-24.87-24.87-24.87h-62.17Z"/>
  </g>
</svg>